<svg width="28" height="28" viewBox="0 0 28 28" fill="none" xmlns="http://www.w3.org/2000/svg">
<path fill-rule="evenodd" clip-rule="evenodd" d="M14.0001 1.16663C6.91243 1.16663 1.16675 6.9123 1.16675 14C1.16675 21.0876 6.91243 26.8333 14.0001 26.8333C21.0877 26.8333 26.8334 21.0876 26.8334 14C26.8334 6.9123 21.0877 1.16663 14.0001 1.16663ZM15.1667 9.33329C15.1667 8.68896 14.6444 8.16663 14.0001 8.16663C13.3557 8.16663 12.8334 8.68896 12.8334 9.33329V14C12.8334 14.6443 13.3557 15.1666 14.0001 15.1666C14.6444 15.1666 15.1667 14.6443 15.1667 14V9.33329ZM14.0001 17.5C13.3557 17.5 12.8334 18.0223 12.8334 18.6666C12.8334 19.311 13.3557 19.8333 14.0001 19.8333H14.0117C14.6561 19.8333 15.1784 19.311 15.1784 18.6666C15.1784 18.0223 14.6561 17.5 14.0117 17.5H14.0001Z" fill="#25744E"/>
</svg>
