<svg width="28" height="29" viewBox="0 0 28 29" fill="none" xmlns="http://www.w3.org/2000/svg">
<path fill-rule="evenodd" clip-rule="evenodd" d="M13.9998 1.60596C6.91218 1.60596 1.1665 7.35164 1.1665 14.4393C1.1665 21.5269 6.91218 27.2726 13.9998 27.2726C21.0875 27.2726 26.8332 21.5269 26.8332 14.4393C26.8332 7.35164 21.0875 1.60596 13.9998 1.60596ZM15.1665 9.77262C15.1665 9.12829 14.6442 8.60596 13.9998 8.60596C13.3555 8.60596 12.8332 9.12829 12.8332 9.77262V14.4393C12.8332 15.0836 13.3555 15.606 13.9998 15.606C14.6442 15.606 15.1665 15.0836 15.1665 14.4393V9.77262ZM13.9998 17.9393C13.3555 17.9393 12.8332 18.4616 12.8332 19.106C12.8332 19.7503 13.3555 20.2726 13.9998 20.2726H14.0115C14.6558 20.2726 15.1782 19.7503 15.1782 19.106C15.1782 18.4616 14.6558 17.9393 14.0115 17.9393H13.9998Z" fill="#447EC3"/>
</svg>
