<svg width="33" height="33" viewBox="0 0 33 33" fill="none" xmlns="http://www.w3.org/2000/svg">
<circle cx="16.5" cy="16.5" r="16.5" fill="#F2F2F2"/>
<path d="M16.5 12.1787C17.021 12.1787 17.5206 12.3856 17.889 12.754C18.2573 13.1224 18.4643 13.622 18.4643 14.1429C18.4643 14.4009 18.4135 14.6563 18.3148 14.8946C18.216 15.133 18.0714 15.3495 17.889 15.5319C17.7066 15.7143 17.49 15.859 17.2517 15.9577C17.0134 16.0564 16.758 16.1072 16.5 16.1072C15.979 16.1072 15.4794 15.9003 15.111 15.5319C14.7427 15.1635 14.5357 14.6639 14.5357 14.1429C14.5357 13.622 14.7427 13.1224 15.111 12.754C15.4794 12.3856 15.979 12.1787 16.5 12.1787ZM16.5 8.64294C17.9587 8.64294 19.3576 9.22241 20.3891 10.2539C21.4205 11.2853 22 12.6843 22 14.1429C22 18.2679 16.5 24.3572 16.5 24.3572C16.5 24.3572 11 18.2679 11 14.1429C11 12.6843 11.5795 11.2853 12.6109 10.2539C13.6424 9.22241 15.0413 8.64294 16.5 8.64294ZM16.5 10.2144C15.4581 10.2144 14.4588 10.6283 13.7221 11.365C12.9853 12.1018 12.5714 13.101 12.5714 14.1429C12.5714 14.9287 12.5714 16.5001 16.5 21.7722C20.4286 16.5001 20.4286 14.9287 20.4286 14.1429C20.4286 13.101 20.0147 12.1018 19.2779 11.365C18.5412 10.6283 17.5419 10.2144 16.5 10.2144Z" fill="#696969"/>
</svg>
