<svg width="25" height="24" viewBox="0 0 25 24" fill="none" xmlns="http://www.w3.org/2000/svg">
<path d="M18.9494 5.636C19.7852 6.47173 20.4481 7.46389 20.9004 8.55582C21.3527 9.64776 21.5855 10.8181 21.5855 12C21.5855 13.1819 21.3527 14.3522 20.9004 15.4442C20.4481 16.5361 19.7852 17.5283 18.9494 18.364M18.9494 18.364L16.1204 15.535M18.9494 18.364L21.5854 21M16.1214 8.464C16.5859 8.92831 16.9543 9.47956 17.2056 10.0863C17.457 10.693 17.5864 11.3433 17.5864 12C17.5864 12.6567 17.457 13.307 17.2056 13.9137C16.9543 14.5204 16.5859 15.0717 16.1214 15.536L13.2924 12.707M13.2924 12.707C13.3879 12.6148 13.4641 12.5044 13.5165 12.3824C13.5689 12.2604 13.5965 12.1292 13.5977 11.9964C13.5988 11.8636 13.5735 11.7319 13.5232 11.609C13.473 11.4861 13.3987 11.3745 13.3048 11.2806C13.2109 11.1867 13.0993 11.1125 12.9764 11.0622C12.8535 11.0119 12.7218 10.9866 12.589 10.9877C12.4562 10.9889 12.325 11.0165 12.203 11.0689C12.081 11.1213 11.9707 11.1975 11.8784 11.293M13.2924 12.707L11.8784 11.293M9.04942 15.536C8.2829 14.7715 7.78649 13.778 7.63542 12.706M6.22142 18.364C5.03563 17.1788 4.20446 15.686 3.82158 14.0538C3.43871 12.4216 3.51935 10.7148 4.05442 9.126M11.8784 11.293L3.58542 3" stroke="white" stroke-width="2" stroke-linecap="round" stroke-linejoin="round"/>
</svg>
