<svg width="25" height="24" viewBox="0 0 25 24" fill="none" xmlns="http://www.w3.org/2000/svg">
<path d="M6.05063 18.3642C5.21489 17.5285 4.55194 16.5363 4.09965 15.4444C3.64735 14.3525 3.41455 13.1821 3.41455 12.0002C3.41455 10.8183 3.64735 9.64799 4.09965 8.55605C4.55194 7.46412 5.21489 6.47196 6.05063 5.63623M18.7786 5.63623C19.6144 6.47196 20.2773 7.46412 20.7296 8.55605C21.1819 9.64799 21.4147 10.8183 21.4147 12.0002C21.4147 13.1821 21.1819 14.3525 20.7296 15.4444C20.2773 16.5363 19.6144 17.5285 18.7786 18.3642M8.87863 15.5352C7.94127 14.5976 7.4147 13.3261 7.4147 12.0002C7.4147 10.6744 7.94127 9.40287 8.87863 8.46523M15.9506 8.46523C16.888 9.40287 17.4146 10.6744 17.4146 12.0002C17.4146 13.3261 16.888 14.5976 15.9506 15.5352M13.4146 12.0002C13.4146 12.2654 13.3093 12.5198 13.1217 12.7073C12.9342 12.8949 12.6798 13.0002 12.4146 13.0002C12.1494 13.0002 11.8951 12.8949 11.7075 12.7073C11.52 12.5198 11.4146 12.2654 11.4146 12.0002C11.4146 11.735 11.52 11.4807 11.7075 11.2931C11.8951 11.1056 12.1494 11.0002 12.4146 11.0002C12.6798 11.0002 12.9342 11.1056 13.1217 11.2931C13.3093 11.4807 13.4146 11.735 13.4146 12.0002Z" stroke="white" stroke-width="2" stroke-linecap="round" stroke-linejoin="round"/>
</svg>
